<svg width="10px" height="10px" viewBox="0 0 10 10" version="1.1">
  <desc>Created with Sketch.</desc>
  <defs></defs>
  <g id="assets" stroke="none" stroke-width="1" fill="none" fill-rule="evenodd">
    <g id="new-tab" transform="translate(-531.000000, -70.000000)" fill="#75798C" fill-rule="nonzero">
      <g id="Group-7-Copy" transform="translate(127.000000, 56.000000)">
        <g id="top">
          <g id="Group-24" transform="translate(196.000000, 0.000000)">
            <g id="close-tab-icon" transform="translate(208.000000, 14.000000)">
              <path d="M6.41421356,5 L9.20710678,7.79289322 C9.59763107,8.18341751 9.59763107,8.81658249 9.20710678,9.20710678 C8.81658249,9.59763107 8.18341751,9.59763107 7.79289322,9.20710678 L5,6.41421356 L2.20710678,9.20710678 C1.81658249,9.59763107 1.18341751,9.59763107 0.792893219,9.20710678 C0.402368927,8.81658249 0.402368927,8.18341751 0.792893219,7.79289322 L3.58578644,5 L0.792893219,2.20710678 C0.402368927,1.81658249 0.402368927,1.18341751 0.792893219,0.792893219 C1.18341751,0.402368927 1.81658249,0.402368927 2.20710678,0.792893219 L5,3.58578644 L7.79289322,0.792893219 C8.18341751,0.402368927 8.81658249,0.402368927 9.20710678,0.792893219 C9.59763107,1.18341751 9.59763107,1.81658249 9.20710678,2.20710678 L6.41421356,5 Z" id="Combined-Shape">
              </path>
            </g>
          </g>
        </g>
      </g>
    </g>
  </g>
</svg>