<svg xmlns="http://www.w3.org/2000/svg" width="26" height="26" viewBox="0 0 26 26">
    <g fill="none" fill-rule="evenodd">
        <g>
            <g>
                <g>
                    <g>
                        <path d="M0 0H26V26H0z" transform="translate(-1174 -26) translate(40 20) translate(1061) translate(73 6)"/>
                        <path fill="#4285F4" fill-rule="nonzero" d="M2 23h4V12.348L0 8v13c0 .98 1.02 2 2 2z" transform="translate(-1174 -26) translate(40 20) translate(1061) translate(73 6)"/>
                        <path fill="#34A853" fill-rule="nonzero" d="M20 23h4c.98 0 2-1.02 2-2V8l-6 4.525V23z" transform="translate(-1174 -26) translate(40 20) translate(1061) translate(73 6)"/>
                        <path fill="#EA4335" d="M5.909 12.459L6 4.829 13 10.096 20.091 4.778 20.091 12.459 13 17.778z" transform="translate(-1174 -26) translate(40 20) translate(1061) translate(73 6)"/>
                        <path fill="#FBBC04" fill-rule="nonzero" d="M20 4.842v7.683l6-4.497V5.664c0-2.19-2.501-3.442-4.255-2.127L20 4.842z" transform="translate(-1174 -26) translate(40 20) translate(1061) translate(73 6)"/>
                        <path fill="#C5221F" fill-rule="nonzero" d="M0 5.664V8l6 4.525V4.83L4.255 3.537C2.5 2.222 0 3.473 0 5.664z" transform="translate(-1174 -26) translate(40 20) translate(1061) translate(73 6)"/>
                    </g>
                </g>
            </g>
        </g>
    </g>
</svg>
