<?xml version="1.0" encoding="UTF-8"?>
<svg width="26px" height="26px" viewBox="0 0 26 26" version="1.1" xmlns="http://www.w3.org/2000/svg" xmlns:xlink="http://www.w3.org/1999/xlink">
    <!-- Generator: Sketch 52.6 (67491) - http://www.bohemiancoding.com/sketch -->
    <desc>Created with Sketch.</desc>
    <g id="Apps" stroke="none" stroke-width="1" fill="none" fill-rule="evenodd">
        <g id="up-to-July-2018" transform="translate(-344.000000, -1125.000000)" fill="#9598A8" fill-rule="nonzero">
            <g id="slack" transform="translate(344.000000, 1125.000000)">
                <path d="M9.49086667,0.0630819672 C8.0613,0.0630819672 6.90256667,1.20537705 6.90256667,2.61406557 C6.90187676,3.28995034 7.17418436,3.93842215 7.65958485,4.41682446 C8.14498533,4.89522676 8.80371716,5.16437126 9.49086667,5.16504918 L12.0796009,5.16504918 L12.0796,2.61406557 C12.0807972,1.20653932 10.9218515,0.0644937088 9.49086667,0.0630819672 M9.49086667,6.86570492 L2.5883,6.86570492 C1.15873333,6.86570492 5.32907052e-15,8.008 5.32907052e-15,9.41711475 C5.32907052e-15,10.8258033 1.15873333,11.9680984 2.5883,11.9680984 L9.4913,11.9680984 C10.9204333,11.9680984 12.0796,10.8258033 12.0796,9.41711475 C12.0796,8.008 10.9204333,6.86570492 9.49086667,6.86570492" id="Shape"></path>
                <path d="M25.8847333,9.41711475 C25.8847333,8.008 24.7255667,6.86570492 23.296,6.86570492 C21.8664333,6.86570492 20.7077,8.008 20.7077,9.41711475 L20.7077,11.9680984 L23.296,11.9680984 C24.7269848,11.9666866 25.8859305,10.824641 25.8847333,9.41711475 M18.9821667,9.41711475 L18.9821667,2.61406557 C18.9833639,1.20653932 17.8244181,0.0644937088 16.3934333,0.0630819672 C14.9638667,0.0630819672 13.8051333,1.20537705 13.8051333,2.61406557 L13.8051333,9.41668852 C13.8051333,10.8262295 14.9638667,11.9685246 16.3934333,11.9685246 C17.8244181,11.9671128 18.9833639,10.8250672 18.9821667,9.41754098" id="Shape"></path>
                <path d="M16.3934333,25.5737705 C17.8244181,25.5723588 18.9833639,24.4303131 18.9821667,23.0227869 C18.9833639,21.6152606 17.8244181,20.473215 16.3934333,20.4718033 L13.8051333,20.4718033 L13.8051333,23.0227869 C13.8051333,24.4314754 14.9638667,25.5737705 16.3934333,25.5737705 M16.3934333,18.7711475 L23.2964333,18.7711475 C24.7255667,18.7711475 25.8847333,17.6288525 25.8847333,16.2197377 C25.8859305,14.8122115 24.7269848,13.6701658 23.296,13.6687541 L16.3934333,13.6687541 C14.9638667,13.6687541 13.8051333,14.8110492 13.8051333,16.2197377 C13.8044434,16.8956225 14.076751,17.5440943 14.5621515,18.0224966 C15.047552,18.5008989 15.7062838,18.7700434 16.3934333,18.7707213" id="Shape"></path>
                <path d="M-1.27116775e-16,16.2197377 C-0.000689908972,16.8956225 0.271617697,17.5440943 0.757018181,18.0224966 C1.24241866,18.5008989 1.90115049,18.7700434 2.5883,18.7707213 C4.0192848,18.7693096 5.17823053,17.627264 5.17703333,16.2197377 L5.17703426,13.6687541 L2.5883,13.6687541 C1.15873333,13.6687541 2.57760384e-16,14.8110492 2.57760384e-16,16.2197377 M6.90256667,16.2197377 L6.90256667,23.0223607 C6.90256667,24.4314754 8.0613,25.5737705 9.49086667,25.5737705 C10.9218515,25.5723588 12.0807972,24.4303131 12.0796,23.0227869 L12.0796,16.2197377 C12.0802899,15.5437792 11.8079228,14.8952428 11.3224286,14.4168282 C10.8369344,13.9384137 10.1780913,13.669319 9.49086667,13.6687541 C8.0613,13.6687541 6.90256667,14.8110492 6.90256667,16.2197377" id="Shape"></path>
            </g>
        </g>
    </g>
</svg>